<?xml version="1.0" encoding="utf-8"?>
<!-- Generator: Adobe Illustrator 16.0.0, SVG Export Plug-In . SVG Version: 6.00 Build 0)  -->
<!DOCTYPE svg PUBLIC "-//W3C//DTD SVG 1.1//EN" "http://www.w3.org/Graphics/SVG/1.1/DTD/svg11.dtd">
<svg version="1.1" id="Layer_1" xmlns="http://www.w3.org/2000/svg" xmlns:xlink="http://www.w3.org/1999/xlink" x="0px" y="0px"
	 width="28.35px" height="28.35px" viewBox="0 0 28.35 28.35" enable-background="new 0 0 28.35 28.35" xml:space="preserve">
<g id="Layer_1_1_">
	<path d="M5.081,24.096H23.27V10.041h0.826V4.254H4.253v5.787H5.08L5.081,24.096L5.081,24.096z M22.443,23.27H5.907V10.041h16.535
		V23.27z M5.081,5.08H23.27v4.134H5.081V5.08z"/>
	<path d="M10.041,15.001h8.268c0.912,0,1.654-0.741,1.654-1.652c0-0.912-0.742-1.654-1.654-1.654h-8.268
		c-0.912,0-1.653,0.742-1.653,1.654C8.388,14.26,9.129,15.001,10.041,15.001z M10.041,12.521h8.268c0.457,0,0.828,0.37,0.828,0.827
		c0,0.455-0.371,0.826-0.828,0.826h-8.268c-0.456,0-0.827-0.371-0.827-0.826C9.214,12.892,9.585,12.521,10.041,12.521z"/>
</g>
</svg>
