<?xml version="1.0" encoding="utf-8"?>
<!-- Generator: Adobe Illustrator 16.0.0, SVG Export Plug-In . SVG Version: 6.00 Build 0)  -->
<!DOCTYPE svg PUBLIC "-//W3C//DTD SVG 1.0//EN" "http://www.w3.org/TR/2001/REC-SVG-20010904/DTD/svg10.dtd">
<svg version="1.0" xmlns="http://www.w3.org/2000/svg" xmlns:xlink="http://www.w3.org/1999/xlink" x="0px" y="0px"
	 width="531.512px" height="118.431px" viewBox="0 0 531.512 118.431" enable-background="new 0 0 531.512 118.431"
	 xml:space="preserve">
<g id="POLE_OCHRONNE">
</g>
<g id="LOGO">
	<g>
		<polygon fill="#FFFFFF" points="149.459,0.003 149.459,15.751 175.011,15.751 175.011,85.038 194.833,85.038 194.833,15.753 
			220.385,15.753 220.385,0.002 177.875,0.002 		"/>
		<rect x="236.136" y="0.003" fill="#FFFFFF" width="19.822" height="85.035"/>
		<polygon fill="#FFFFFF" points="291.532,0.003 271.709,0.003 271.708,85.038 329.694,85.038 320.602,69.289 291.532,69.289 		"/>
		<path fill="#FFFFFF" d="M402.672,12.531C394.422,4.264,384.481-0.009,372.721,0c-11.76-0.009-21.83,4.262-29.961,12.539
			c-8.266,8.255-12.559,18.3-12.549,29.967c-0.01,11.769,4.285,21.739,12.553,29.996c8.229,8.272,18.197,12.544,29.957,12.535h0.039
			c11.744,0,21.676-4.274,29.918-12.535c8.371-8.152,12.641-18.231,12.631-29.996C415.319,30.841,411.047,20.792,402.672,12.531z
			 M348.79,42.508c0.006-6.593,2.236-12.22,6.928-16.901l-0.57-0.57l0.572,0.569c4.797-4.789,10.395-7.015,17.006-7.023
			c6.58,0.007,12.209,2.325,16.916,7.023c4.695,4.687,7.014,10.318,7.02,16.902c-0.008,6.614-2.232,12.216-7.02,17.018
			c-4.703,4.692-10.326,6.923-16.916,6.93c-6.611-0.007-12.309-2.238-17.006-6.93C351.028,54.821,348.795,49.124,348.79,42.508z"/>
		<polygon fill="#BFCD2E" points="89.098,69.286 54.563,69.286 63.564,85.04 98.193,85.04 		"/>
		<polygon fill="#FFFFFF" points="82.854,58.469 49.096,0.001 0,85.039 20.289,85.039 49.093,35.148 62.557,58.469 		"/>
		<path fill="#FFFFFF" d="M124.646,52.983l-0.004-0.001c3.242-2.028,6.057-4.769,8.407-8.175h0.001
			c3.43-4.839,5.064-10.26,5.062-16.245c0.007-7.794-2.817-14.543-8.374-20.195c-5.564-5.553-12.409-8.373-20.199-8.364H73.76
			l9.094,15.749h26.686c3.52,0.01,6.459,1.23,9.022,3.782c2.661,2.579,3.901,5.512,3.91,9.028c-0.009,3.654-1.257,6.692-3.897,9.248
			c-2.576,2.564-5.516,3.786-9.035,3.795h-11.76l25.078,43.434h20.297L124.646,52.983z"/>
		<polygon fill="#BFCD2E" points="501.747,0.001 482.61,0.001 482.61,26.326 501.747,42.945 		"/>
		<polygon fill="#FFFFFF" points="501.747,61.601 430.821,0.001 430.821,85.038 449.958,85.038 449.958,40.008 501.747,85.038 		"/>
		<g>
			<path fill="#FFFFFF" stroke="#FFFFFF" d="M526.072,2.39c1.292,0.76,2.314,1.788,3.064,3.089c0.751,1.302,1.126,2.718,1.126,4.252
				c0,1.518-0.375,2.932-1.126,4.24c-0.75,1.309-1.775,2.352-3.077,3.126c-1.3,0.775-2.734,1.163-4.3,1.163
				c-1.552,0-2.974-0.384-4.264-1.15c-1.294-0.767-2.312-1.801-3.054-3.102s-1.113-2.71-1.113-4.227c0-1.518,0.376-2.931,1.126-4.24
				c0.752-1.309,1.772-2.352,3.064-3.126c1.292-0.775,2.722-1.163,4.289-1.163C523.358,1.252,524.782,1.632,526.072,2.39z
				 M525.272,15.684c1.06-0.616,1.894-1.454,2.502-2.514c0.609-1.059,0.912-2.205,0.912-3.439s-0.303-2.371-0.912-3.414
				c-0.608-1.041-1.438-1.871-2.489-2.488c-1.05-0.616-2.208-0.926-3.477-0.926c-1.268,0-2.43,0.313-3.489,0.938
				c-1.058,0.626-1.893,1.463-2.5,2.514c-0.609,1.051-0.912,2.192-0.912,3.427s0.3,2.371,0.899,3.414
				c0.601,1.041,1.425,1.872,2.477,2.488c1.049,0.617,2.208,0.926,3.477,0.926C523.042,16.61,524.214,16.301,525.272,15.684z
				 M524.972,9.869c-0.292,0.459-0.705,0.806-1.237,1.038l1.85,2.751h-1.8l-1.476-2.451h-0.3h-1.852v2.451h-1.575V5.354h3.427
				c1.083,0,1.921,0.246,2.515,0.738c0.59,0.492,0.886,1.196,0.886,2.113C525.41,8.856,525.264,9.41,524.972,9.869z M520.158,9.881
				h1.852c0.601,0,1.067-0.146,1.4-0.438s0.5-0.696,0.5-1.213s-0.167-0.908-0.5-1.176c-0.333-0.267-0.8-0.4-1.4-0.4h-1.852V9.881z"
				/>
		</g>
		<path fill="#FFFFFF" d="M75.423,108.416h-2.862c-1.024,0-1.835,0.787-1.835,1.812c0,0.979,0.811,1.813,1.835,1.813h1.623v0.454
			c0,1.049-0.836,2.288-2.98,2.288c-2.29,0-3.434-1.216-3.602-3.624c-0.047-0.834-0.095-1.765,0-2.718
			c0.215-2.385,1.24-3.673,3.434-3.673c1.693,0,2.338,0.739,2.934,1.622c0.31,0.429,0.834,0.882,1.55,0.882
			c1.073,0,1.955-0.882,1.955-1.884c0-0.501-0.144-0.93-0.382-1.264c-1.239-1.956-3.29-3.147-6.152-3.147
			c-4.172,0-7.01,3.004-7.367,6.867c-0.119,1.192-0.119,2.48,0,3.768c0.333,3.815,3.195,6.819,7.392,6.819
			c3.887,0,7.034-2.528,7.034-6.319v-1.144C77.998,109.608,77.092,108.416,75.423,108.416z M98.191,103.6
			c-0.644-1.788-2.003-2.623-3.601-2.623c-1.573,0-2.909,0.835-3.577,2.623l-4.269,11.851c-0.071,0.239-0.118,0.478-0.118,0.715
			c0,1.025,0.715,2.051,1.954,2.051c0.812,0,1.574-0.501,1.884-1.287l1.026-3.052h6.151l1.025,3.052
			c0.263,0.786,1.05,1.264,1.86,1.264c1.239,0,1.979-1.025,1.979-2.051c0-0.239-0.048-0.477-0.119-0.691L98.191,103.6z
			 M92.66,110.442l1.716-5.079c0.024-0.118,0.096-0.189,0.215-0.189s0.19,0.071,0.238,0.189l1.669,5.079H92.66z M117.885,101.215
			h-3.458c-1.836,0-2.79,1.145-2.79,2.694v11.494c0,1.525,1.025,2.718,2.79,2.718h3.458c5.507,0,7.845-3.076,8.154-7.296
			c0.071-0.812,0.048-1.694-0.023-2.576C125.705,104.1,123.248,101.215,117.885,101.215z M121.985,110.586
			c-0.167,2.194-1.288,3.553-3.982,3.553h-2.313v-8.99h2.313c2.79,0,3.911,1.456,4.006,3.793
			C122.033,109.441,122.033,110.014,121.985,110.586z M141.225,100.118c1.025,0,1.812-0.811,1.812-1.813
			c0-1.025-0.786-1.836-1.812-1.836s-1.812,0.811-1.812,1.836C139.413,99.308,140.199,100.118,141.225,100.118z M145.97,114.139
			h-5.843l6.63-8.346c0.739-0.906,0.93-1.526,0.93-2.241c0-1.24-0.978-2.337-2.623-2.337h-8.012c-1.12,0-2.027,0.858-2.027,2.003
			c0,1.073,0.907,2.003,2.027,2.003h5.413l-6.701,8.322c-0.69,0.811-0.882,1.406-0.882,2.146c0,1.358,1.025,2.432,2.79,2.432h8.298
			c1.12,0,2.051-0.858,2.051-1.979C148.021,115.045,147.09,114.139,145.97,114.139z M167.785,114.377h-6.439v-3.004h5.485
			c1.073,0,1.813-0.811,1.813-1.741c0-1.049-0.716-1.716-1.813-1.716h-5.485v-2.98h6.391c1.025,0,1.932-0.859,1.932-1.884
			c0-1.073-0.858-1.837-1.932-1.837h-7.653c-1.813,0-2.79,1.192-2.79,2.694v11.47c0,1.502,0.978,2.742,2.79,2.742h7.702
			c1.072,0,1.932-0.811,1.932-1.884C169.717,115.235,168.786,114.377,167.785,114.377z M190.721,101.215h-10.586
			c-1.146,0-2.052,0.858-2.052,2.003c0,1.073,0.906,2.003,2.052,2.003h3.266v10.944c0,1.098,0.954,2.051,2.051,2.051
			c1.145,0,2.003-0.905,2.003-2.051v-10.944h3.267c1.097,0,2.051-0.93,2.051-2.003C192.771,102.073,191.865,101.215,190.721,101.215
			z M213.107,102.002l-4.126,5.127l-4.054-5.127c-0.404-0.524-1.025-0.811-1.645-0.811c-1.145,0-2.075,1.024-2.075,2.098
			c0,0.477,0.168,0.978,0.525,1.384l4.578,5.437c0.405,0.477,0.668,0.787,0.668,1.383v4.649c0,1.097,0.929,2.074,2.002,2.074
			c1.169,0,2.051-0.905,2.051-2.074v-4.649c0-0.62,0.239-0.882,0.644-1.359l4.626-5.483c0.763-0.907,0.597-2.242-0.263-2.981
			C215.134,100.905,213.799,101.143,213.107,102.002z M249.036,111.659c1.335-0.548,2.933-1.932,2.933-4.77
			c0-3.695-2.743-5.675-5.985-5.675h-4.912c-1.598,0-2.504,1.097-2.504,2.433v12.518c0,1.122,0.954,2.099,2.027,2.099
			c1.12,0,2.051-0.977,2.051-2.099v-3.481h1.478c0.668,0,0.954,0.287,1.335,0.764l3.435,4.244c0.333,0.43,0.858,0.572,1.383,0.572
			s1.074-0.19,1.527-0.62c0.738-0.715,0.762-2.098,0.047-2.838L249.036,111.659z M245.555,109.013h-2.908v-4.126h3.027
			c1.525,0,2.218,0.835,2.218,2.099C247.892,108.178,247.319,109.013,245.555,109.013z M272.377,114.377h-6.439v-3.004h5.486
			c1.072,0,1.813-0.811,1.813-1.741c0-1.049-0.717-1.716-1.813-1.716h-5.486v-2.98h6.391c1.025,0,1.934-0.859,1.934-1.884
			c0-1.073-0.859-1.837-1.934-1.837h-7.652c-1.813,0-2.791,1.192-2.791,2.694v11.47c0,1.502,0.979,2.742,2.791,2.742h7.701
			c1.072,0,1.932-0.811,1.932-1.884C274.309,115.235,273.379,114.377,272.377,114.377z M297.268,101.812
			c-0.357-0.382-0.883-0.597-1.406-0.597c-0.549,0-1.098,0.215-1.527,0.715l-4.793,5.246c-0.477,0.525-0.834,0.549-1.406,0.549
			v-4.436c0-1.145-0.857-2.074-2.025-2.074c-1.074,0-2.027,0.93-2.027,2.074v12.828c0,1.121,0.953,2.099,2.027,2.099
			c1.168,0,2.025-0.929,2.025-2.099v-4.506c0.572,0,0.955,0,1.406,0.549l4.793,5.365c0.406,0.452,0.955,0.69,1.479,0.69
			c0.549,0,1.074-0.215,1.455-0.619c0.764-0.835,0.645-2.027-0.072-2.862l-4.697-5.221l4.842-5.104
			C298.032,103.671,297.959,102.551,297.268,101.812z M317.032,114.139h-5.889v-10.85c0-1.145-0.857-2.074-2.027-2.074
			c-1.072,0-2.025,0.93-2.025,2.074v12.733c0,1.145,0.762,2.099,2.121,2.099h7.82c1.121,0,2.053-0.858,2.053-1.979
			C319.084,115.045,318.106,114.139,317.032,114.139z M339.443,103.6c-0.645-1.788-2.004-2.623-3.602-2.623
			c-1.572,0-2.908,0.835-3.576,2.623l-4.269,11.851c-0.07,0.239-0.119,0.478-0.119,0.715c0,1.025,0.715,2.051,1.955,2.051
			c0.812,0,1.573-0.501,1.884-1.287l1.025-3.052h6.152l1.025,3.052c0.262,0.786,1.049,1.264,1.859,1.264
			c1.24,0,1.979-1.025,1.979-2.051c0-0.239-0.047-0.477-0.119-0.691L339.443,103.6z M333.912,110.442l1.715-5.079
			c0.025-0.118,0.096-0.189,0.215-0.189s0.191,0.071,0.238,0.189l1.67,5.079H333.912z M371.75,104.624
			c-0.311-2.384-1.766-3.433-3.459-3.433c-1.717,0-3.242,0.905-3.625,3.409l-1.477,8.704c0,0.095-0.049,0.143-0.145,0.143
			c-0.07,0-0.117-0.048-0.117-0.143l-1.504-8.704c-0.428-2.504-1.932-3.409-3.646-3.409c-1.695,0-3.102,1.049-3.459,3.433
			l-1.479,11.041c-0.023,0.143-0.023,0.31-0.023,0.452c0,1.146,0.715,2.146,2.123,2.146c1.049,0,1.906-0.667,1.979-1.646
			l1.025-10.801c0-0.048,0.023-0.12,0.096-0.12c0.047,0,0.096,0.072,0.096,0.096l1.836,9.634c0.357,1.931,1.691,2.813,3.074,2.813
			c1.408,0,2.768-0.883,3.102-2.813l1.787-9.634c0-0.071,0.049-0.096,0.096-0.096c0.072,0,0.096,0.024,0.096,0.096l1.025,10.802
			c0.094,1.002,0.953,1.669,2.004,1.669c1.406,0,2.098-0.977,2.098-2.146c0-0.143,0-0.31-0.025-0.476L371.75,104.624z
			 M389.939,100.977c-4.148,0-7.273,3.004-7.605,6.867c-0.119,1.192-0.119,2.48,0,3.768c0.332,3.815,3.457,6.819,7.605,6.819
			c4.15,0,7.344-3.004,7.678-6.819c0.096-1.287,0.096-2.48,0-3.768C397.283,104.052,394.089,100.977,389.939,100.977z
			 M393.564,111.015c-0.119,2.099-1.574,3.577-3.625,3.577c-2.002,0-3.434-1.479-3.576-3.577c-0.047-0.834-0.047-1.812,0-2.671
			c0.143-2.073,1.574-3.552,3.576-3.552c2.027,0,3.506,1.479,3.625,3.552C393.634,109.203,393.634,110.181,393.564,111.015z
			 M426.205,101.215c-0.932,0-1.717,0.644-1.98,1.525l-1.74,11.255c-0.023,0.097-0.119,0.097-0.143,0l-1.932-9.775
			c-0.404-2.17-1.908-3.005-3.172-3.005c-1.336,0-2.789,0.812-3.17,2.98l-1.859,9.824c-0.025,0.072-0.121,0.072-0.145,0
			l-1.717-11.279c-0.143-0.882-1.049-1.525-2.027-1.525c-1.287,0-1.979,1.025-1.979,2.026c0,0.168,0.023,0.358,0.072,0.524
			l2.432,11.899c0.381,1.835,1.813,2.742,3.242,2.742c1.406,0,2.838-0.882,3.172-2.694l1.908-9.705c0.023-0.072,0.094-0.072,0.119,0
			l2.025,9.776c0.334,1.692,1.789,2.623,3.148,2.623c1.336,0,2.67-0.931,3.027-2.694l2.648-11.947
			c0.047-0.166,0.07-0.333,0.07-0.524C428.207,102.265,427.515,101.215,426.205,101.215z M447.97,114.377h-6.439v-3.004h5.484
			c1.074,0,1.813-0.811,1.813-1.741c0-1.049-0.715-1.716-1.813-1.716h-5.484v-2.98h6.391c1.025,0,1.932-0.859,1.932-1.884
			c0-1.073-0.857-1.837-1.932-1.837h-7.654c-1.813,0-2.789,1.192-2.789,2.694v11.47c0,1.502,0.977,2.742,2.789,2.742h7.703
			c1.072,0,1.932-0.811,1.932-1.884C449.902,115.235,448.972,114.377,447.97,114.377z"/>
	</g>
</g>
</svg>
