<?xml version="1.0" encoding="utf-8"?>
<!-- Generator: Adobe Illustrator 16.0.0, SVG Export Plug-In . SVG Version: 6.00 Build 0)  -->
<!DOCTYPE svg PUBLIC "-//W3C//DTD SVG 1.1//EN" "http://www.w3.org/Graphics/SVG/1.1/DTD/svg11.dtd">
<svg version="1.1" id="Layer_1" xmlns="http://www.w3.org/2000/svg" xmlns:xlink="http://www.w3.org/1999/xlink" x="0px" y="0px"
	 width="531.512px" height="118.432px" viewBox="0 0 531.512 118.432" enable-background="new 0 0 531.512 118.432"
	 xml:space="preserve">
<text transform="matrix(1 0 0 1 286.3586 51.4705)" fill="#FFFFFF" font-family="'MrEavesXLModOT-Ultra'" font-size="83.6565" letter-spacing="4">SOFT</text>
<g id="POLE_OCHRONNE">
</g>
<polygon fill="#FFFFFF" points="149.459,0.003 149.459,15.751 175.011,15.751 175.011,85.038 194.833,85.038 194.833,15.753 
	220.385,15.753 220.385,0.002 177.875,0.002 "/>
<rect x="236.136" y="0.003" fill="#FFFFFF" width="19.822" height="85.035"/>
<polygon fill="#BFCD2E" points="89.098,69.286 54.563,69.286 63.564,85.04 98.193,85.04 "/>
<polygon fill="#BFCD2E" points="281.257,85.04 479.099,85.04 488.1,69.286 290.352,69.286 "/>
<polygon fill="#FFFFFF" points="82.854,58.469 49.096,0.001 0,85.039 20.289,85.039 49.093,35.148 62.557,58.469 "/>
<path fill="#FFFFFF" d="M124.646,52.983l-0.004-0.001c3.242-2.028,6.058-4.77,8.407-8.175h0.001
	c3.43-4.84,5.063-10.261,5.062-16.245c0.008-7.794-2.816-14.543-8.374-20.195c-5.563-5.553-12.408-8.373-20.198-8.364H73.76
	l9.094,15.749h26.687c3.52,0.01,6.459,1.23,9.021,3.782c2.661,2.579,3.901,5.512,3.91,9.028c-0.009,3.653-1.257,6.691-3.896,9.248
	c-2.576,2.563-5.517,3.785-9.035,3.795H97.78l25.078,43.434h20.297L124.646,52.983z"/>
<path fill="#FFFFFF" d="M75.423,108.416h-2.862c-1.023,0-1.835,0.787-1.835,1.813c0,0.979,0.812,1.813,1.835,1.813h1.623v0.454
	c0,1.049-0.836,2.288-2.979,2.288c-2.29,0-3.435-1.216-3.603-3.624c-0.047-0.834-0.095-1.765,0-2.718
	c0.215-2.385,1.24-3.673,3.435-3.673c1.692,0,2.338,0.738,2.934,1.622c0.31,0.429,0.834,0.882,1.55,0.882
	c1.073,0,1.955-0.882,1.955-1.884c0-0.501-0.144-0.931-0.382-1.265c-1.239-1.956-3.29-3.146-6.152-3.146
	c-4.172,0-7.01,3.004-7.366,6.866c-0.119,1.192-0.119,2.48,0,3.769c0.333,3.814,3.194,6.819,7.392,6.819
	c3.887,0,7.034-2.528,7.034-6.319v-1.145C77.998,109.608,77.092,108.416,75.423,108.416z M98.191,103.6
	c-0.644-1.788-2.003-2.623-3.601-2.623c-1.573,0-2.909,0.835-3.577,2.623l-4.269,11.851c-0.071,0.239-0.118,0.479-0.118,0.715
	c0,1.025,0.715,2.051,1.954,2.051c0.812,0,1.573-0.501,1.884-1.286l1.026-3.053h6.15l1.025,3.053
	c0.263,0.785,1.05,1.264,1.859,1.264c1.239,0,1.979-1.025,1.979-2.051c0-0.239-0.048-0.478-0.119-0.691L98.191,103.6z
	 M92.66,110.442l1.716-5.079c0.023-0.118,0.096-0.189,0.215-0.189s0.189,0.071,0.238,0.189l1.669,5.079H92.66z M117.885,101.215
	h-3.458c-1.836,0-2.79,1.146-2.79,2.694v11.494c0,1.524,1.025,2.718,2.79,2.718h3.458c5.507,0,7.845-3.076,8.154-7.296
	c0.07-0.812,0.048-1.694-0.023-2.576C125.705,104.1,123.248,101.215,117.885,101.215z M121.985,110.586
	c-0.167,2.194-1.288,3.554-3.981,3.554h-2.313v-8.99h2.313c2.79,0,3.911,1.456,4.006,3.793
	C122.033,109.441,122.033,110.014,121.985,110.586z M141.225,100.118c1.025,0,1.813-0.811,1.813-1.813
	c0-1.025-0.786-1.837-1.813-1.837c-1.025,0-1.812,0.812-1.812,1.837C139.413,99.308,140.199,100.118,141.225,100.118z
	 M145.97,114.139h-5.843l6.63-8.347c0.739-0.905,0.93-1.525,0.93-2.241c0-1.239-0.978-2.337-2.623-2.337h-8.012
	c-1.12,0-2.027,0.858-2.027,2.003c0,1.073,0.907,2.004,2.027,2.004h5.413l-6.701,8.321c-0.69,0.812-0.882,1.406-0.882,2.146
	c0,1.357,1.024,2.432,2.79,2.432h8.298c1.12,0,2.051-0.857,2.051-1.979C148.021,115.045,147.09,114.139,145.97,114.139z
	 M167.785,114.377h-6.439v-3.004h5.485c1.072,0,1.813-0.811,1.813-1.741c0-1.049-0.716-1.716-1.813-1.716h-5.485v-2.979h6.391
	c1.025,0,1.933-0.859,1.933-1.885c0-1.072-0.858-1.837-1.933-1.837h-7.652c-1.813,0-2.79,1.192-2.79,2.694v11.47
	c0,1.502,0.978,2.742,2.79,2.742h7.702c1.071,0,1.932-0.811,1.932-1.884C169.717,115.235,168.786,114.377,167.785,114.377z
	 M190.721,101.215h-10.586c-1.146,0-2.052,0.858-2.052,2.003c0,1.073,0.905,2.004,2.052,2.004h3.266v10.943
	c0,1.099,0.954,2.051,2.052,2.051c1.145,0,2.003-0.904,2.003-2.051v-10.943h3.267c1.097,0,2.051-0.931,2.051-2.004
	C192.771,102.073,191.865,101.215,190.721,101.215z M213.107,102.002l-4.126,5.127l-4.054-5.127
	c-0.404-0.523-1.025-0.811-1.646-0.811c-1.145,0-2.074,1.023-2.074,2.098c0,0.478,0.168,0.979,0.524,1.384l4.578,5.438
	c0.405,0.477,0.668,0.787,0.668,1.383v4.649c0,1.097,0.929,2.073,2.002,2.073c1.169,0,2.051-0.904,2.051-2.073v-4.649
	c0-0.62,0.239-0.882,0.645-1.359l4.626-5.482c0.763-0.907,0.597-2.242-0.263-2.981C215.134,100.905,213.799,101.143,213.107,102.002
	z M249.036,111.659c1.335-0.548,2.933-1.932,2.933-4.77c0-3.695-2.743-5.676-5.985-5.676h-4.912c-1.598,0-2.504,1.098-2.504,2.434
	v12.518c0,1.122,0.954,2.1,2.027,2.1c1.12,0,2.051-0.978,2.051-2.1v-3.48h1.479c0.668,0,0.954,0.287,1.335,0.764l3.435,4.244
	c0.333,0.43,0.858,0.572,1.383,0.572c0.525,0,1.074-0.19,1.527-0.62c0.738-0.715,0.762-2.099,0.047-2.838L249.036,111.659z
	 M245.555,109.013h-2.908v-4.126h3.027c1.524,0,2.218,0.835,2.218,2.099C247.892,108.177,247.319,109.013,245.555,109.013z
	 M272.377,114.377h-6.439v-3.004h5.486c1.072,0,1.813-0.811,1.813-1.741c0-1.049-0.717-1.716-1.813-1.716h-5.486v-2.979h6.392
	c1.024,0,1.934-0.859,1.934-1.885c0-1.072-0.859-1.837-1.934-1.837h-7.652c-1.813,0-2.791,1.192-2.791,2.694v11.47
	c0,1.502,0.979,2.742,2.791,2.742h7.701c1.072,0,1.932-0.811,1.932-1.884C274.309,115.235,273.379,114.377,272.377,114.377z
	 M297.268,101.812c-0.356-0.382-0.883-0.598-1.406-0.598c-0.549,0-1.098,0.216-1.526,0.716l-4.793,5.245
	c-0.478,0.525-0.834,0.55-1.406,0.55v-4.437c0-1.145-0.857-2.074-2.025-2.074c-1.073,0-2.026,0.931-2.026,2.074v12.828
	c0,1.121,0.953,2.099,2.026,2.099c1.168,0,2.025-0.929,2.025-2.099v-4.506c0.572,0,0.955,0,1.406,0.549l4.793,5.365
	c0.406,0.452,0.955,0.689,1.479,0.689c0.549,0,1.074-0.215,1.455-0.618c0.764-0.836,0.645-2.027-0.072-2.862l-4.696-5.221
	l4.842-5.104C298.031,103.671,297.959,102.551,297.268,101.812z M317.031,114.139h-5.889v-10.851c0-1.145-0.857-2.074-2.027-2.074
	c-1.071,0-2.024,0.931-2.024,2.074v12.733c0,1.145,0.762,2.099,2.121,2.099h7.819c1.121,0,2.054-0.857,2.054-1.979
	C319.084,115.045,318.106,114.139,317.031,114.139z M339.443,103.6c-0.645-1.788-2.004-2.623-3.602-2.623
	c-1.572,0-2.908,0.835-3.576,2.623l-4.27,11.851c-0.069,0.239-0.118,0.479-0.118,0.715c0,1.025,0.715,2.051,1.954,2.051
	c0.813,0,1.573-0.501,1.885-1.286l1.024-3.053h6.152l1.025,3.053c0.262,0.785,1.049,1.264,1.858,1.264
	c1.24,0,1.979-1.025,1.979-2.051c0-0.239-0.047-0.478-0.119-0.691L339.443,103.6z M333.911,110.442l1.716-5.079
	c0.024-0.118,0.096-0.189,0.215-0.189s0.19,0.071,0.237,0.189l1.671,5.079H333.911z M371.75,104.624
	c-0.312-2.384-1.767-3.433-3.459-3.433c-1.718,0-3.242,0.905-3.625,3.409l-1.478,8.704c0,0.095-0.049,0.143-0.145,0.143
	c-0.07,0-0.117-0.048-0.117-0.143l-1.504-8.704c-0.429-2.504-1.933-3.409-3.646-3.409c-1.694,0-3.102,1.049-3.459,3.433
	l-1.479,11.041c-0.023,0.144-0.023,0.311-0.023,0.452c0,1.146,0.715,2.146,2.123,2.146c1.049,0,1.906-0.667,1.979-1.646
	l1.024-10.801c0-0.048,0.023-0.12,0.096-0.12c0.048,0,0.097,0.072,0.097,0.096l1.836,9.634c0.356,1.932,1.69,2.813,3.074,2.813
	c1.407,0,2.768-0.883,3.102-2.813l1.787-9.634c0-0.07,0.049-0.096,0.096-0.096c0.072,0,0.096,0.023,0.096,0.096l1.025,10.802
	c0.094,1.003,0.953,1.67,2.004,1.67c1.406,0,2.098-0.978,2.098-2.146c0-0.143,0-0.31-0.024-0.476L371.75,104.624z M389.939,100.977
	c-4.147,0-7.272,3.004-7.604,6.866c-0.119,1.192-0.119,2.48,0,3.769c0.332,3.814,3.457,6.819,7.604,6.819
	c4.15,0,7.344-3.005,7.678-6.819c0.097-1.287,0.097-2.48,0-3.769C397.282,104.052,394.089,100.977,389.939,100.977z
	 M393.564,111.015c-0.119,2.099-1.574,3.576-3.625,3.576c-2.002,0-3.434-1.479-3.576-3.576c-0.047-0.834-0.047-1.813,0-2.672
	c0.144-2.072,1.574-3.552,3.576-3.552c2.027,0,3.506,1.479,3.625,3.552C393.634,109.203,393.634,110.181,393.564,111.015z
	 M426.204,101.215c-0.932,0-1.717,0.645-1.979,1.525l-1.74,11.255c-0.022,0.097-0.119,0.097-0.143,0l-1.933-9.775
	c-0.403-2.17-1.907-3.005-3.172-3.005c-1.336,0-2.789,0.813-3.17,2.98l-1.858,9.824c-0.025,0.071-0.121,0.071-0.146,0l-1.717-11.279
	c-0.144-0.882-1.049-1.525-2.027-1.525c-1.287,0-1.979,1.025-1.979,2.026c0,0.168,0.022,0.358,0.071,0.524l2.433,11.898
	c0.381,1.835,1.813,2.742,3.241,2.742c1.406,0,2.839-0.882,3.173-2.694l1.907-9.705c0.023-0.071,0.095-0.071,0.119,0l2.025,9.776
	c0.334,1.692,1.789,2.623,3.147,2.623c1.337,0,2.671-0.931,3.027-2.694l2.648-11.946c0.047-0.166,0.069-0.333,0.069-0.524
	C428.207,102.265,427.515,101.215,426.204,101.215z M447.97,114.377h-6.439v-3.004h5.484c1.074,0,1.813-0.811,1.813-1.741
	c0-1.049-0.715-1.716-1.813-1.716h-5.484v-2.979h6.392c1.024,0,1.932-0.859,1.932-1.885c0-1.072-0.857-1.837-1.932-1.837h-7.654
	c-1.813,0-2.789,1.192-2.789,2.694v11.47c0,1.502,0.977,2.742,2.789,2.742h7.703c1.072,0,1.932-0.811,1.932-1.884
	C449.902,115.235,448.972,114.377,447.97,114.377z"/>
</svg>
