<?xml version="1.0" encoding="utf-8"?>
<!-- Generator: Adobe Illustrator 13.0.0, SVG Export Plug-In . SVG Version: 6.00 Build 14948)  -->
<!DOCTYPE svg PUBLIC "-//W3C//DTD SVG 1.1//EN" "http://www.w3.org/Graphics/SVG/1.1/DTD/svg11.dtd">
<svg version="1.1" id="Layer_1" xmlns="http://www.w3.org/2000/svg" xmlns:xlink="http://www.w3.org/1999/xlink" x="0px" y="0px"
	 width="126px" height="126px" viewBox="0 0 126 126" enable-background="new 0 0 126 126" xml:space="preserve">
<rect fill="none" width="126" height="126"/>
<g>
	<g>
		<path fill="#4D4D4D" d="M23.398,98.935V22.134c0-3.531,2.875-6.403,6.403-6.403h64c3.531,0,6.398,2.872,6.398,6.403v37.625
			l6.402-6.403V22.134c0-7.071-5.734-12.801-12.801-12.801h-64C22.73,9.333,17,15.063,17,22.134v76.801
			c0,7.066,5.73,12.797,12.801,12.797H65v-6.398H29.801C26.273,105.333,23.398,102.466,23.398,98.935L23.398,98.935z M87.398,28.532
			H36.199v6.403h51.199V28.532z M87.398,41.333H36.199v6.398h51.199V41.333z M87.398,54.134H36.199v6.398h51.199V54.134z
			 M36.199,73.333h25.602v-6.398H36.199V73.333z M117.523,66.935L113,62.408c-1.25-1.25-2.887-1.875-4.523-1.875
			c-1.641,0-3.277,0.625-4.527,1.875L76.477,89.884c-1.25,1.25-5.078,6.082-5.078,7.723l-3.199,14.125l14.125-3.199
			c0,0,6.477-3.824,7.727-5.074l27.473-27.477C120.023,73.486,120.023,69.431,117.523,66.935L117.523,66.935z M87.793,101.189
			c-0.363,0.344-1.617,1.191-3.148,2.168l-8.289-8.293c0.852-1.164,1.797-2.336,2.383-2.918l20.688-20.688l9.051,9.051
			L87.793,101.189z M87.793,101.189"/>
	</g>
</g>
</svg>
