<?xml version="1.0" encoding="utf-8"?>
<!-- Generator: Adobe Illustrator 16.0.0, SVG Export Plug-In . SVG Version: 6.00 Build 0)  -->
<!DOCTYPE svg PUBLIC "-//W3C//DTD SVG 1.1//EN" "http://www.w3.org/Graphics/SVG/1.1/DTD/svg11.dtd">
<svg version="1.1" id="Layer_1" xmlns="http://www.w3.org/2000/svg" xmlns:xlink="http://www.w3.org/1999/xlink" x="0px" y="0px"
	 width="126px" height="126px" viewBox="0 0 126 126" enable-background="new 0 0 126 126" xml:space="preserve">
<rect fill="none" width="126" height="126"/>
<g>
	<path fill="none" stroke="#000000" stroke-width="6" stroke-linecap="round" stroke-linejoin="round" d="M101.743,62.897V30.884
		c0-0.815-0.32-1.595-0.901-2.172L84.719,12.588c-0.579-0.578-1.359-0.9-2.17-0.9H22.881c-1.698,0-3.073,1.375-3.073,3.073v96.276
		c0,1.695,1.375,3.07,3.073,3.07h32.773"/>
	<path fill="none" stroke="#000000" stroke-width="6" stroke-linecap="round" stroke-linejoin="round" d="M40.291,52.656h40.968
		 M40.291,32.171h20.484 M40.291,73.139h15.363"/>
	<path fill="#FFFFFF" stroke="#000000" stroke-width="6" stroke-linecap="round" stroke-linejoin="round" d="M81.259,29.099V13.498
		c0-1,0.81-1.81,1.811-1.81c0.479,0,0.939,0.19,1.279,0.53l16.863,16.863c0.342,0.34,0.531,0.8,0.531,1.281
		c0,1-0.811,1.81-1.812,1.81H84.329C82.633,32.171,81.259,30.797,81.259,29.099z"/>
	<path fill="none" stroke="#000000" stroke-width="6" stroke-linecap="round" stroke-linejoin="round" d="M91.265,88.193
		l5.121-5.121c2.246-2.242,5.878-2.242,8.122,0l0,0c2.246,2.24,2.246,5.881,0,8.121l-5.121,5.119 M91.265,88.193L75.947,103.51
		c-0.77,0.766-1.271,1.756-1.44,2.83l-1.239,7.973l7.972-1.246c1.07-0.164,2.061-0.67,2.83-1.439l15.317-15.314 M91.265,88.193
		l8.122,8.119"/>
</g>
</svg>
