<?xml version="1.0" encoding="utf-8"?>
<!-- Generator: Adobe Illustrator 16.0.0, SVG Export Plug-In . SVG Version: 6.00 Build 0)  -->
<!DOCTYPE svg PUBLIC "-//W3C//DTD SVG 1.0//EN" "http://www.w3.org/TR/2001/REC-SVG-20010904/DTD/svg10.dtd">
<svg version="1.0" id="Layer_1" xmlns="http://www.w3.org/2000/svg" xmlns:xlink="http://www.w3.org/1999/xlink" x="0px" y="0px"
	 width="28.35px" height="28.35px" viewBox="0 0 28.35 28.35" enable-background="new 0 0 28.35 28.35" xml:space="preserve">
<path d="M23.635,13.016l-0.074-0.065l-9.06-8.197c-0.089-0.081-0.206-0.125-0.327-0.125s-0.237,0.044-0.327,0.125l-9.06,8.197
	c-0.204,0.182-0.222,0.494-0.041,0.697c0.173,0.192,0.499,0.213,0.696,0.039l8.73-7.914l8.734,7.898
	c0.189,0.17,0.52,0.153,0.694-0.041C23.759,13.456,23.767,13.199,23.635,13.016z"/>
<path d="M6.409,23.721H21.94c0.269,0,0.487-0.219,0.487-0.487v-7.334c0-0.269-0.219-0.487-0.487-0.487
	c-0.27,0-0.488,0.219-0.488,0.487v6.847H6.897v-6.847c0-0.269-0.219-0.487-0.488-0.487c-0.269,0-0.487,0.219-0.487,0.487v7.334
	C5.921,23.502,6.14,23.721,6.409,23.721z"/>
</svg>
