<?xml version="1.0" encoding="utf-8"?>
<!-- Generator: Adobe Illustrator 16.0.0, SVG Export Plug-In . SVG Version: 6.00 Build 0)  -->
<!DOCTYPE svg PUBLIC "-//W3C//DTD SVG 1.1//EN" "http://www.w3.org/Graphics/SVG/1.1/DTD/svg11.dtd">
<svg version="1.1" id="Layer_1" xmlns="http://www.w3.org/2000/svg" xmlns:xlink="http://www.w3.org/1999/xlink" x="0px" y="0px"
	 width="18px" height="18px" viewBox="0 0 18 18" enable-background="new 0 0 18 18" xml:space="preserve">
<path fill="#22B573" d="M9,1.001C4.583,1.001,1.001,4.582,1.001,9S4.583,16.999,9,16.999S16.998,13.418,16.998,9
	S13.418,1.001,9,1.001z M9,14.186c-2.864,0-5.185-2.322-5.185-5.186c0-2.864,2.321-5.185,5.185-5.185
	c2.865,0,5.186,2.321,5.186,5.185C14.186,11.863,11.865,14.186,9,14.186z"/>
<g>
	<circle fill="#D0D41F" cx="9.116" cy="9.051" r="5.451"/>
	<g>
		<g>
			<path fill="#FFFFFF" d="M8.329,11.467c-0.233,0-0.464-0.09-0.642-0.267c-0.356-0.354-0.356-0.931,0-1.286l3.01-3.012
				c0.355-0.354,0.932-0.354,1.287,0c0.353,0.354,0.353,0.929,0,1.284L8.972,11.2C8.794,11.38,8.563,11.467,8.329,11.467z"/>
		</g>
		<g>
			<path fill="#FFFFFF" d="M8.329,11.467c-0.233,0-0.464-0.09-0.642-0.267L6.179,9.694c-0.353-0.354-0.353-0.932,0-1.285
				c0.357-0.354,0.933-0.354,1.286,0l1.507,1.505c0.354,0.355,0.354,0.932,0,1.286C8.794,11.38,8.563,11.467,8.329,11.467z"/>
		</g>
	</g>
</g>
</svg>
