<?xml version="1.0" encoding="utf-8"?>
<!-- Generator: Adobe Illustrator 16.0.0, SVG Export Plug-In . SVG Version: 6.00 Build 0)  -->
<!DOCTYPE svg PUBLIC "-//W3C//DTD SVG 1.1//EN" "http://www.w3.org/Graphics/SVG/1.1/DTD/svg11.dtd">
<svg version="1.1" id="Layer_1" xmlns="http://www.w3.org/2000/svg" xmlns:xlink="http://www.w3.org/1999/xlink" x="0px" y="0px"
	 width="18px" height="18px" viewBox="0 0 18 18" enable-background="new 0 0 18 18" xml:space="preserve">
<g>
	<path fill="#22B573" d="M9.006,4.744c2.355,0.007,4.266,1.929,4.255,4.282c-0.01,2.348-1.927,4.251-4.274,4.248
		C6.634,13.27,4.725,11.348,4.73,8.991C4.738,6.647,6.66,4.737,9.006,4.744z"/>
	<path fill="#D0D41F" d="M15.443,13.748c0.289,0.289,0.574,0.574,0.863,0.859c0.103,0.102,0.196,0.203,0.131,0.361
		c-0.063,0.158-0.196,0.172-0.344,0.172c-0.91-0.002-1.82-0.002-2.73-0.002c-0.285,0-0.368-0.08-0.369-0.363
		c0-0.916,0.001-1.832-0.002-2.748c0-0.143,0.02-0.269,0.167-0.332c0.149-0.063,0.253,0.017,0.352,0.117
		c0.253,0.256,0.509,0.51,0.792,0.797c0.18-0.332,0.363-0.635,0.512-0.955c1.748-3.78-0.614-8.254-4.724-8.946
		c-1.23-0.207-2.42-0.075-3.572,0.402C6.204,3.24,6.126,3.209,5.973,2.9C5.849,2.652,5.724,2.405,5.601,2.156
		C5.485,1.92,5.526,1.792,5.764,1.692c2.263-0.955,4.526-0.948,6.73,0.137c2.352,1.157,3.814,3.059,4.339,5.629
		c0.444,2.188-0.007,4.22-1.251,6.073c-0.037,0.056-0.077,0.109-0.114,0.164C15.461,13.704,15.458,13.715,15.443,13.748z"/>
	<path fill="#D0D41F" d="M2.553,4.266c-0.278-0.275-0.555-0.547-0.83-0.82C1.688,3.411,1.635,3.382,1.619,3.339
		C1.587,3.247,1.543,3.142,1.557,3.051c0.02-0.119,0.128-0.173,0.254-0.173c0.965,0,1.932-0.001,2.897,0
		c0.186,0,0.288,0.104,0.288,0.292c0.002,0.96,0.001,1.921,0.001,2.882c0,0.123-0.048,0.215-0.162,0.266
		C4.711,6.374,4.608,6.333,4.519,6.242C4.254,5.974,3.989,5.705,3.708,5.42C3.66,5.49,3.622,5.542,3.588,5.596
		C1.445,8.952,2.924,13.5,6.635,14.95c1.614,0.632,3.229,0.608,4.833-0.043c0.317-0.13,0.396-0.103,0.548,0.204
		c0.127,0.254,0.256,0.506,0.379,0.76c0.109,0.225,0.064,0.354-0.162,0.451c-1.217,0.531-2.488,0.761-3.813,0.658
		c-1.947-0.147-3.625-0.905-5.017-2.269c-1.318-1.289-2.105-2.858-2.334-4.69c-0.26-2.078,0.234-3.974,1.443-5.684
		C2.52,4.325,2.527,4.31,2.553,4.266z"/>
</g>
</svg>
