<?xml version="1.0" encoding="utf-8"?>
<!-- Generator: Adobe Illustrator 16.0.0, SVG Export Plug-In . SVG Version: 6.00 Build 0)  -->
<!DOCTYPE svg PUBLIC "-//W3C//DTD SVG 1.1//EN" "http://www.w3.org/Graphics/SVG/1.1/DTD/svg11.dtd">
<svg version="1.1" id="Layer_1" xmlns="http://www.w3.org/2000/svg" xmlns:xlink="http://www.w3.org/1999/xlink" x="0px" y="0px"
	 width="18px" height="18px" viewBox="0 0 18 18" enable-background="new 0 0 18 18" xml:space="preserve">
<g>
	<path fill="#22B573" d="M13.94,2.414H4.06C2.94,2.425,2.036,3.329,2.025,4.447v7.557c0.041,1.143,0.82,2.124,1.921,2.427
		l6.486,1.523c0.5,0.129,1.032,0.025,1.445-0.284c0.4-0.328,0.626-0.823,0.609-1.341V8.696c-0.002-1.111-0.743-2.085-1.813-2.384
		L4.383,4.578C4.15,4.514,4.014,4.273,4.078,4.041C4.143,3.81,4.383,3.673,4.615,3.737L6.67,4.304h0.006h7.265
		c0.241,0,0.437,0.195,0.437,0.437c0,0.24-0.195,0.436-0.437,0.436h-3.043c-0.08,0-0.146,0.064-0.146,0.146
		c0,0.064,0.043,0.122,0.107,0.14l0.049,0.015c0.662,0.184,1.252,0.567,1.686,1.101c0.029,0.033,0.07,0.053,0.113,0.053h1.233
		c0.241,0,0.437,0.195,0.437,0.436c0,0.241-0.195,0.437-0.437,0.437h-0.604c-0.08-0.001-0.145,0.063-0.146,0.144
		c0,0.016,0.002,0.031,0.007,0.046c0.107,0.325,0.163,0.665,0.163,1.007v4.035c0,0.08,0.066,0.146,0.146,0.146h0.433
		c1.124,0,2.034-0.911,2.034-2.034V4.449C15.976,3.326,15.064,2.415,13.94,2.414C13.941,2.414,13.941,2.414,13.94,2.414z
		 M11.034,11.132c0,0.643-0.521,1.163-1.163,1.163c-0.642,0-1.162-0.521-1.162-1.163c0-0.642,0.521-1.162,1.162-1.162
		C10.514,9.97,11.034,10.49,11.034,11.132z"/>
</g>
</svg>
