<?xml version="1.0" encoding="utf-8"?>
<!-- Generator: Adobe Illustrator 16.0.0, SVG Export Plug-In . SVG Version: 6.00 Build 0)  -->
<!DOCTYPE svg PUBLIC "-//W3C//DTD SVG 1.1//EN" "http://www.w3.org/Graphics/SVG/1.1/DTD/svg11.dtd">
<svg version="1.1" id="Layer_1" xmlns="http://www.w3.org/2000/svg" xmlns:xlink="http://www.w3.org/1999/xlink" x="0px" y="0px"
	 width="18px" height="18px" viewBox="0 0 18 18" enable-background="new 0 0 18 18" xml:space="preserve">
<g>
	<circle fill="#22B573" cx="9" cy="9" r="7.999"/>
	<g>
		<path fill="#FFFFFF" d="M7.673,6.492v5.225c0,0.465-0.339,0.822-0.803,0.822c-0.436,0-0.794-0.368-0.794-0.822v-3.89l-0.85,0.485
			c-0.397,0.222-0.881,0.097-1.104-0.31C3.909,7.624,4.055,7.131,4.441,6.898l1.993-1.122C6.58,5.699,6.715,5.66,6.87,5.66
			C7.402,5.66,7.673,6.145,7.673,6.492z"/>
		<path fill="#FFFFFF" d="M13.225,11.098v0.619c0,0.444-0.367,0.813-0.804,0.813c-0.465,0-0.813-0.357-0.813-0.813v-0.619H9.645
			c-0.821,0-1.17-0.619-1.006-1.268c0.039-0.137,0.106-0.29,0.291-0.532l2.301-3.144c0.252-0.329,0.582-0.532,0.959-0.532
			c0.668,0,1.035,0.513,1.035,1.103v2.767h0.377c0.444,0,0.803,0.339,0.803,0.803c0,0.416-0.377,0.805-0.803,0.805h-0.377V11.098z
			 M11.607,9.55V7.896l-1.16,1.654H11.607z"/>
	</g>
</g>
</svg>
