<?xml version="1.0" encoding="utf-8"?>
<!-- Generator: Adobe Illustrator 16.0.0, SVG Export Plug-In . SVG Version: 6.00 Build 0)  -->
<!DOCTYPE svg PUBLIC "-//W3C//DTD SVG 1.1//EN" "http://www.w3.org/Graphics/SVG/1.1/DTD/svg11.dtd">
<svg version="1.1" id="Layer_1" xmlns="http://www.w3.org/2000/svg" xmlns:xlink="http://www.w3.org/1999/xlink" x="0px" y="0px"
	 width="18px" height="18px" viewBox="0 0 18 18" enable-background="new 0 0 18 18" xml:space="preserve">
<path fill="#22B573" d="M13.939,2.414H4.06C2.94,2.425,2.036,3.329,2.025,4.447v6.02c0.649-0.434,1.428-0.688,2.267-0.688
	c2.262,0,4.095,1.834,4.095,4.096c0,0.541-0.111,1.056-0.301,1.528l2.346,0.551c0.5,0.129,1.032,0.024,1.445-0.284
	c0.4-0.328,0.626-0.822,0.609-1.341V8.696c-0.002-1.111-0.743-2.085-1.813-2.384l-6.29-1.734C4.15,4.514,4.014,4.273,4.078,4.041
	C4.143,3.81,4.383,3.673,4.615,3.737L6.67,4.304h0.006h7.266c0.24,0,0.437,0.195,0.437,0.437c0,0.24-0.194,0.436-0.437,0.436h-3.043
	c-0.08,0-0.146,0.064-0.146,0.146c0,0.064,0.043,0.122,0.107,0.14l0.049,0.015c0.662,0.184,1.252,0.567,1.686,1.101
	c0.029,0.033,0.07,0.053,0.113,0.053h1.232c0.242,0,0.438,0.195,0.438,0.436c0,0.241-0.195,0.437-0.438,0.437h-0.604
	c-0.08-0.001-0.145,0.063-0.146,0.144c0,0.016,0.002,0.031,0.008,0.046c0.107,0.325,0.162,0.665,0.162,1.007v4.034
	c0,0.08,0.066,0.146,0.146,0.146h0.434c1.123,0,2.033-0.91,2.033-2.033v-6.4C15.977,3.326,15.064,2.415,13.939,2.414z M9.871,9.971
	c0.643,0,1.163,0.52,1.163,1.161c0,0.644-0.521,1.163-1.163,1.163c-0.642,0-1.162-0.521-1.162-1.163S9.23,9.971,9.871,9.971z"/>
<g>
	<circle fill="#D0D41F" cx="4.292" cy="13.875" r="3.449"/>
	<g>
		<g>
			<path fill="#FFFFFF" d="M3.794,15.403c-0.148,0-0.294-0.056-0.407-0.168c-0.225-0.225-0.225-0.588,0-0.813l1.906-1.906
				c0.225-0.225,0.588-0.225,0.813,0s0.225,0.588,0,0.813L4.2,15.235C4.088,15.348,3.941,15.403,3.794,15.403z"/>
		</g>
		<g>
			<path fill="#FFFFFF" d="M3.794,15.403c-0.148,0-0.294-0.056-0.407-0.168l-0.954-0.953c-0.224-0.225-0.224-0.59,0-0.813
				c0.226-0.224,0.59-0.224,0.813,0L4.2,14.422c0.225,0.226,0.225,0.589,0,0.813C4.088,15.348,3.941,15.403,3.794,15.403z"/>
		</g>
	</g>
</g>
</svg>
