<?xml version="1.0" encoding="utf-8"?>
<!-- Generator: Adobe Illustrator 16.0.0, SVG Export Plug-In . SVG Version: 6.00 Build 0)  -->
<!DOCTYPE svg PUBLIC "-//W3C//DTD SVG 1.1//EN" "http://www.w3.org/Graphics/SVG/1.1/DTD/svg11.dtd">
<svg version="1.1" id="Layer_1" xmlns="http://www.w3.org/2000/svg" xmlns:xlink="http://www.w3.org/1999/xlink" x="0px" y="0px"
	 width="18px" height="18px" viewBox="0 0 18 18" enable-background="new 0 0 18 18" xml:space="preserve">
<g>
	<circle fill="#22B573" cx="9" cy="9" r="7.999"/>
	<g>
		<path fill="#FFFFFF" d="M5.815,8.906c1.365-0.906,1.7-1.14,1.7-1.537c0-0.244-0.152-0.602-0.804-0.602
			c-0.509,0-0.814,0.193-1.038,0.449C5.53,7.369,5.429,7.49,5.226,7.553c-0.449,0.142-0.957-0.114-1.08-0.53
			C4.075,6.758,4.105,6.494,4.258,6.27C4.646,5.689,5.5,5.129,6.69,5.129c1.68,0,2.555,0.979,2.555,2.189
			c0,0.672-0.152,1.354-1.761,2.454c-0.244,0.172-1.089,0.66-1.19,0.903h2.27c0.479,0,0.865,0.378,0.865,0.837
			c0,0.487-0.387,0.844-0.865,0.844h-3.41c-0.591,0-1.019-0.355-1.019-1.008C4.136,10.412,4.716,9.639,5.815,8.906z"/>
		<path fill="#FFFFFF" d="M13.408,6.035v5.496c0,0.488-0.356,0.865-0.846,0.865c-0.457,0-0.834-0.388-0.834-0.865V7.439l-0.896,0.51
			c-0.417,0.234-0.926,0.102-1.16-0.326c-0.224-0.396-0.07-0.916,0.336-1.16l2.098-1.18C12.258,5.201,12.4,5.16,12.563,5.16
			C13.123,5.16,13.408,5.67,13.408,6.035z"/>
	</g>
</g>
</svg>
