<?xml version="1.0" encoding="utf-8"?>
<!-- Generator: Adobe Illustrator 16.0.0, SVG Export Plug-In . SVG Version: 6.00 Build 0)  -->
<!DOCTYPE svg PUBLIC "-//W3C//DTD SVG 1.1//EN" "http://www.w3.org/Graphics/SVG/1.1/DTD/svg11.dtd">
<svg version="1.1" id="Layer_1" xmlns="http://www.w3.org/2000/svg" xmlns:xlink="http://www.w3.org/1999/xlink" x="0px" y="0px"
	 width="18px" height="18px" viewBox="0 0 18 18" enable-background="new 0 0 18 18" xml:space="preserve">
<g>
	<circle fill="#D0D41F" cx="9" cy="9" r="7"/>
	<g>
		<g>
			<path fill="#FFFFFF" d="M7.989,12.103c-0.3,0-0.596-0.116-0.824-0.342c-0.458-0.455-0.458-1.196,0-1.653l3.864-3.867
				c0.456-0.455,1.197-0.455,1.653,0c0.453,0.456,0.453,1.193,0,1.65l-3.868,3.87C8.586,11.99,8.289,12.103,7.989,12.103z"/>
		</g>
		<g>
			<path fill="#FFFFFF" d="M7.989,12.103c-0.3,0-0.596-0.116-0.824-0.342L5.229,9.825c-0.454-0.454-0.454-1.196,0-1.649
				c0.459-0.454,1.197-0.454,1.65,0l1.936,1.932c0.455,0.457,0.455,1.198,0,1.653C8.586,11.99,8.289,12.103,7.989,12.103z"/>
		</g>
	</g>
</g>
</svg>
