<?xml version="1.0" encoding="utf-8"?>
<!-- Generator: Adobe Illustrator 16.0.0, SVG Export Plug-In . SVG Version: 6.00 Build 0)  -->
<!DOCTYPE svg PUBLIC "-//W3C//DTD SVG 1.1//EN" "http://www.w3.org/Graphics/SVG/1.1/DTD/svg11.dtd">
<svg version="1.1" id="Layer_1" xmlns="http://www.w3.org/2000/svg" xmlns:xlink="http://www.w3.org/1999/xlink" x="0px" y="0px"
	 width="18px" height="18px" viewBox="0 0 18 18" enable-background="new 0 0 18 18" xml:space="preserve">
<g>
	<g>
		<g>
			<circle fill="#10F0BA" cx="9" cy="9.125" r="8"/>
		</g>
	</g>
</g>
<g>
	<g>
		<g>
			<path fill="#FFFFFF" d="M7.845,12.545c-0.341,0-0.683-0.13-0.942-0.391c-0.521-0.521-0.521-1.364,0-1.887l4.422-4.421
				c0.521-0.521,1.364-0.521,1.885,0s0.521,1.365,0,1.886l-4.422,4.422C8.527,12.415,8.186,12.545,7.845,12.545z"/>
		</g>
		<g>
			<path fill="#FFFFFF" d="M7.845,12.545c-0.341,0-0.683-0.13-0.942-0.391L4.69,9.941c-0.521-0.521-0.521-1.363,0-1.885
				c0.521-0.52,1.364-0.521,1.886,0l2.211,2.211c0.521,0.521,0.521,1.365,0,1.887C8.527,12.415,8.186,12.545,7.845,12.545z"/>
		</g>
	</g>
</g>
</svg>
