<?xml version="1.0" encoding="utf-8"?>
<!-- Generator: Adobe Illustrator 16.0.0, SVG Export Plug-In . SVG Version: 6.00 Build 0)  -->
<!DOCTYPE svg PUBLIC "-//W3C//DTD SVG 1.0//EN" "http://www.w3.org/TR/2001/REC-SVG-20010904/DTD/svg10.dtd">
<svg version="1.0" id="Layer_1" xmlns="http://www.w3.org/2000/svg" xmlns:xlink="http://www.w3.org/1999/xlink" x="0px" y="0px"
	 width="28.35px" height="28.35px" viewBox="0 0 28.35 28.35" enable-background="new 0 0 28.35 28.35" xml:space="preserve">
<g>
	<path fill-rule="evenodd" clip-rule="evenodd" d="M10.29,9.701c2.129,0,4.259,0,6.387,0c0.43,0,0.527,0.099,0.527,0.531
		c0,2.626,0,5.252,0,7.878c0,0.432-0.099,0.531-0.528,0.531c-4.273,0-8.546,0-12.82,0c-0.412,0-0.519-0.106-0.519-0.521
		c0-2.634,0-5.268,0-7.9c0-0.415,0.105-0.52,0.52-0.52C6.001,9.701,8.145,9.701,10.29,9.701z M11.147,10.439
		c-2.376,0-4.726,0-7.068,0c0,2.501,0,4.986,0,7.462c4.144,0,8.27,0,12.39,0c0-2.499,0-4.979,0-7.461c-0.579,0-1.146,0-1.724,0
		c0,0.106,0,0.197,0,0.287c0,0.978,0,1.956,0,2.934c-0.001,0.424-0.1,0.524-0.514,0.524c-0.851,0.001-1.7,0.001-2.551,0
		c-0.448,0-0.533-0.088-0.533-0.544C11.147,12.58,11.147,11.521,11.147,10.439z M14.006,13.454c0-1.024,0-2.021,0-3.015
		c-0.719,0-1.421,0-2.123,0c0,1.013,0,2.009,0,3.015C12.594,13.454,13.292,13.454,14.006,13.454z"/>
	<path fill-rule="evenodd" clip-rule="evenodd" d="M10.115,7.127c0,0.405,0.001,0.804,0,1.202c-0.002,0.284-0.136,0.449-0.359,0.449
		c-0.223,0-0.362-0.17-0.362-0.45c-0.002-0.489-0.003-0.979,0-1.467C9.394,6.553,9.516,6.43,9.828,6.406
		c2.443-0.192,4.887-0.387,7.33-0.579c0.682-0.054,1.364-0.105,2.047-0.151c0.175-0.012,0.27-0.048,0.317-0.254
		c0.19-0.818,0.941-1.282,1.806-1.145c0.822,0.13,1.357,0.818,1.303,1.679c-0.052,0.802-0.697,1.419-1.515,1.446
		c-0.684,0.022-1.191-0.265-1.493-0.883c-0.062-0.125-0.126-0.152-0.257-0.141c-1.649,0.134-3.299,0.261-4.947,0.39
		c-1.372,0.107-2.743,0.216-4.115,0.324C10.245,7.098,10.187,7.113,10.115,7.127z M21.042,6.68c0.513,0,0.874-0.357,0.87-0.861
		c-0.003-0.478-0.385-0.858-0.862-0.86c-0.476-0.002-0.868,0.382-0.871,0.853C20.176,6.318,20.536,6.682,21.042,6.68z"/>
	<path fill-rule="evenodd" clip-rule="evenodd" d="M10.115,21.229c0.497,0.041,0.975,0.08,1.454,0.118
		c2.053,0.162,4.107,0.325,6.16,0.487c0.563,0.044,1.124,0.093,1.688,0.124c0.064,0.004,0.164-0.08,0.199-0.147
		c0.327-0.624,0.931-0.949,1.642-0.872c0.629,0.069,1.161,0.544,1.33,1.185c0.225,0.854-0.272,1.697-1.131,1.917
		c-0.878,0.226-1.733-0.262-1.937-1.125c-0.044-0.19-0.129-0.234-0.298-0.248c-2.196-0.167-4.392-0.339-6.589-0.51
		c-0.944-0.073-1.889-0.148-2.833-0.224c-0.28-0.023-0.404-0.153-0.406-0.437c-0.003-0.504-0.003-1.008,0-1.512
		c0.002-0.261,0.15-0.427,0.367-0.423c0.218,0.004,0.352,0.165,0.354,0.434C10.116,20.401,10.115,20.806,10.115,21.229z
		 M21.912,22.518c0.001-0.5-0.359-0.854-0.871-0.856c-0.506-0.001-0.862,0.356-0.862,0.864c0,0.468,0.389,0.856,0.859,0.859
		C21.524,23.387,21.911,23.003,21.912,22.518z"/>
	<path fill-rule="evenodd" clip-rule="evenodd" d="M20.127,13.81c0.512,0,1.023-0.006,1.534,0.004
		c0.151,0.004,0.218-0.039,0.271-0.187c0.271-0.75,1.042-1.179,1.799-1.019c0.783,0.166,1.319,0.859,1.278,1.653
		c-0.04,0.769-0.575,1.345-1.37,1.474c-0.736,0.119-1.446-0.29-1.698-1.001c-0.06-0.165-0.136-0.207-0.304-0.206
		c-1.016,0.008-2.031,0.012-3.047-0.004c-0.137-0.001-0.319-0.075-0.4-0.179c-0.179-0.228,0.019-0.53,0.335-0.534
		C19.059,13.805,19.593,13.81,20.127,13.81z M22.563,14.164c-0.002,0.51,0.355,0.874,0.859,0.873
		c0.489-0.003,0.854-0.367,0.859-0.858c0.006-0.499-0.366-0.874-0.866-0.872C22.921,13.308,22.566,13.663,22.563,14.164z"/>
	<path fill-rule="evenodd" clip-rule="evenodd" d="M6.977,16.584c-0.384,0-0.769,0.004-1.151-0.001
		c-0.286-0.002-0.42-0.121-0.421-0.356c-0.001-0.233,0.135-0.361,0.417-0.362c0.775-0.005,1.55-0.005,2.325-0.001
		c0.275,0.001,0.425,0.137,0.426,0.36s-0.149,0.356-0.422,0.359C7.758,16.587,7.368,16.584,6.977,16.584z"/>
</g>
</svg>
