<?xml version="1.0" encoding="utf-8"?>
<!-- Generator: Adobe Illustrator 16.0.0, SVG Export Plug-In . SVG Version: 6.00 Build 0)  -->
<!DOCTYPE svg PUBLIC "-//W3C//DTD SVG 1.0//EN" "http://www.w3.org/TR/2001/REC-SVG-20010904/DTD/svg10.dtd">
<svg version="1.0" id="Layer_1" xmlns="http://www.w3.org/2000/svg" xmlns:xlink="http://www.w3.org/1999/xlink" x="0px" y="0px"
	 width="28.35px" height="28.35px" viewBox="0 0 28.35 28.35" enable-background="new 0 0 28.35 28.35" xml:space="preserve">
<circle fill="#D8D9DA" cx="14.175" cy="14.175" r="14.175"/>
<path d="M16.883,14.098c0.579-0.645,0.935-1.495,0.935-2.428c0-2.009-1.634-3.643-3.643-3.643s-3.643,1.634-3.643,3.643
	s1.634,3.643,3.643,3.643c0.708,0,1.367-0.207,1.928-0.559c1.98,0.747,3.345,2.561,3.518,4.656H8.73
	c0.118-1.411,0.78-2.727,1.857-3.666c0.19-0.165,0.209-0.452,0.044-0.643c-0.165-0.189-0.453-0.209-0.643-0.044
	C8.597,16.271,7.8,18.023,7.8,19.867c0,0.251,0.204,0.455,0.456,0.455h11.839c0.251,0,0.455-0.204,0.455-0.455
	C20.55,17.368,19.102,15.138,16.883,14.098z M11.443,11.671c0-1.507,1.225-2.732,2.732-2.732s2.732,1.226,2.732,2.732
	s-1.226,2.732-2.732,2.732S11.443,13.177,11.443,11.671z"/>
</svg>
