<?xml version="1.0" encoding="utf-8"?>
<!-- Generator: Adobe Illustrator 16.0.0, SVG Export Plug-In . SVG Version: 6.00 Build 0)  -->
<!DOCTYPE svg PUBLIC "-//W3C//DTD SVG 1.1//EN" "http://www.w3.org/Graphics/SVG/1.1/DTD/svg11.dtd">
<svg version="1.1" id="Layer_1" xmlns="http://www.w3.org/2000/svg" xmlns:xlink="http://www.w3.org/1999/xlink" x="0px" y="0px"
	 width="126px" height="126px" viewBox="0 0 126 126" enable-background="new 0 0 126 126" xml:space="preserve">
<rect fill="none" width="126" height="126"/>
<g>
	<path fill="#1F1E21" stroke="#1F1E21" stroke-width="3" stroke-miterlimit="10" d="M47.483,54.76c1.782,0,3.404,1.135,3.674,2.756
		l4.918,28.424c0.055,0.27,0.377,0.27,0.433,0l5.513-25.452c0.756-3.944,3.512-5.513,6.053-5.513c2.377,0,5.133,1.621,5.998,5.513
		l5.619,25.452c0.055,0.324,0.379,0.324,0.432,0l5.025-28.424c0.271-1.621,1.839-2.756,3.568-2.756c2.484,0,3.674,1.892,3.674,3.729
		c0,0.325-0.053,0.596-0.107,0.919l-6.375,28.748c-0.812,3.783-3.404,5.565-5.944,5.565c-2.539,0-5.296-1.782-6.16-5.512
		l-5.62-24.856c-0.055-0.271-0.324-0.271-0.378,0l-5.514,24.909c-0.81,3.783-3.403,5.459-6.052,5.459
		c-2.702,0-5.513-1.729-6.322-5.565l-6-28.748c-0.054-0.271-0.106-0.594-0.106-0.865C43.809,56.705,45.051,54.76,47.483,54.76z"/>
</g>
<g id="g2214" transform="translate(280.46668,270.47595)">
	<path id="path1801" fill="none" stroke="#2F2F2E" stroke-width="9.2604" stroke-linecap="round" stroke-linejoin="round" d="
		M-233.066-161.087h34.659c46.031,0,46.031-70.298-3.924-70.298h-68.243"/>
	<path id="path1803" fill="none" stroke="#2F2F2E" stroke-width="9.2604" stroke-linecap="round" stroke-linejoin="round" d="
		M-270.574-231.385l22.975,22.479"/>
	<path id="path1805" fill="none" stroke="#2F2F2E" stroke-width="9.2604" stroke-linecap="round" stroke-linejoin="round" d="
		M-270.574-231.385l22.975-22.479"/>
</g>
</svg>
