<?xml version="1.0" encoding="utf-8"?>
<!-- Generator: Adobe Illustrator 13.0.0, SVG Export Plug-In . SVG Version: 6.00 Build 14948)  -->
<!DOCTYPE svg PUBLIC "-//W3C//DTD SVG 1.1//EN" "http://www.w3.org/Graphics/SVG/1.1/DTD/svg11.dtd">
<svg version="1.1" id="Layer_1" xmlns="http://www.w3.org/2000/svg" xmlns:xlink="http://www.w3.org/1999/xlink" x="0px" y="0px"
	 width="126px" height="126px" viewBox="0 0 126 126" enable-background="new 0 0 126 126" xml:space="preserve">
<g>
	<path fill="#4D4D4D" d="M10.762,32.396c2.433,0,4.645,1.548,5.014,3.76l6.709,38.782c0.074,0.369,0.516,0.369,0.59,0l7.521-34.727
		c1.032-5.382,4.792-7.521,8.258-7.521c3.244,0,7.004,2.212,8.184,7.521l7.668,34.727c0.074,0.443,0.516,0.443,0.59,0l6.857-38.782
		c0.369-2.212,2.507-3.76,4.866-3.76c3.392,0,5.014,2.581,5.014,5.087c0,0.442-0.073,0.811-0.147,1.253l-8.7,39.225
		c-1.106,5.161-4.645,7.594-8.11,7.594s-7.226-2.433-8.405-7.52l-7.668-33.917c-0.074-0.369-0.442-0.369-0.516,0l-7.521,33.99
		c-1.106,5.161-4.645,7.446-8.258,7.446c-3.687,0-7.521-2.359-8.626-7.594L5.896,38.736c-0.074-0.369-0.147-0.811-0.147-1.18
		C5.749,35.05,7.444,32.396,10.762,32.396z"/>
	<path fill="#4D4D4D" d="M83.676,84.744c-4.719,0-7.447-2.875-7.447-6.563c0-1.916,0.517-3.465,2.213-5.529l23.004-30.008h-19.76
		c-2.803,0-5.088-2.286-5.088-5.014c0-2.875,2.285-4.94,5.088-4.94h25.363c4.424,0,7.078,2.949,7.078,6.341
		c0,1.843-0.59,3.539-2.434,5.898L88.837,74.864h21.382c2.802,0,5.088,2.286,5.088,5.014c0,2.802-2.286,4.866-5.088,4.866H83.676z"
		/>
</g>
</svg>
