<?xml version="1.0" encoding="utf-8"?>
<!-- Generator: Adobe Illustrator 16.0.0, SVG Export Plug-In . SVG Version: 6.00 Build 0)  -->
<!DOCTYPE svg PUBLIC "-//W3C//DTD SVG 1.1//EN" "http://www.w3.org/Graphics/SVG/1.1/DTD/svg11.dtd">
<svg version="1.1" id="Layer_1" xmlns="http://www.w3.org/2000/svg" xmlns:xlink="http://www.w3.org/1999/xlink" x="0px" y="0px"
	 width="40px" height="40px" viewBox="0 0 40 40" enable-background="new 0 0 40 40" xml:space="preserve">
<g>
	<defs>
		<rect id="SVGID_1_" width="40" height="40"/>
	</defs>
	<clipPath id="SVGID_2_">
		<use xlink:href="#SVGID_1_"  overflow="visible"/>
	</clipPath>
	<path clip-path="url(#SVGID_2_)" fill="#ECECEC" d="M1,40V0h-2v40H1z M40,39H0v2h40V39z M39,0v40h2V0H39z M0,1h40v-2H0V1z M0,40h-1
		v1h1V40z M40,40v1h1v-1H40z M40,0h1v-1h-1V0z M0,0v-1h-1v1H0z"/>
</g>
<g>
	<path d="M4.84,13V4.328h3.282c2.543,0,4.313,1.781,4.313,4.359c0,2.531-1.723,4.313-4.196,4.313H4.84z M6.738,6.086v5.156h1.313
		c1.5,0,2.379-0.949,2.379-2.555c0-1.641-0.926-2.602-2.496-2.602H6.738z"/>
	<path d="M12.802,4.328h6.821v1.758h-2.461V13h-1.898V6.086h-2.461V4.328z"/>
	<path d="M22.66,9.613V13h-1.897V4.328h5.521v1.758H22.66v1.816h3.048v1.711H22.66z"/>
	<path d="M27.235,13v-1.406l2.859-2.379c0.926-0.762,1.313-1.301,1.313-2.016c0-0.879-0.434-1.348-1.206-1.348
		c-0.81,0-1.279,0.551-1.279,1.523h-1.886c0-1.945,1.243-3.211,3.152-3.211c1.979,0,3.164,1.066,3.164,2.918
		c0,1.184-0.715,2.145-1.793,3.047l-1.301,1.09h3.163v1.758L27.235,13z"/>
</g>
<circle fill="#03CCE7" cx="9.183" cy="25.727" r="4.06"/>
<circle fill="#E703B5" cx="16.143" cy="25.727" r="4.06"/>
<circle fill="#FFF500" cx="23.102" cy="25.727" r="4.06"/>
<circle cx="30.063" cy="25.727" r="4.061"/>
</svg>
