<?xml version="1.0" encoding="utf-8"?>
<!-- Generator: Adobe Illustrator 16.0.0, SVG Export Plug-In . SVG Version: 6.00 Build 0)  -->
<!DOCTYPE svg PUBLIC "-//W3C//DTD SVG 1.1//EN" "http://www.w3.org/Graphics/SVG/1.1/DTD/svg11.dtd">
<svg version="1.1" id="Layer_1" xmlns="http://www.w3.org/2000/svg" xmlns:xlink="http://www.w3.org/1999/xlink" x="0px" y="0px"
	 width="40px" height="40px" viewBox="0 0 40 40" enable-background="new 0 0 40 40" xml:space="preserve">
<circle cx="9" cy="20" r="4"/>
<circle fill="#EBEBEB" cx="9" cy="31" r="4"/>
<circle fill="#EBEBEB" cx="20" cy="20" r="4"/>
<circle fill="#EBEBEB" cx="20" cy="31" r="4"/>
<circle fill="#EBEBEB" cx="30" cy="20" r="4"/>
<circle fill="#EBEBEB" cx="30" cy="31" r="4"/>
<g>
	<defs>
		<rect id="SVGID_1_" width="40" height="40"/>
	</defs>
	<clipPath id="SVGID_2_">
		<use xlink:href="#SVGID_1_"  overflow="visible"/>
	</clipPath>
	<path clip-path="url(#SVGID_2_)" fill="#ECECEC" d="M1,40V0h-2v40H1z M40,39H0v2h40V39z M39,0v40h2V0H39z M0,1h40v-2H0V1z M0,40h-1
		v1h1V40z M40,40v1h1v-1H40z M40,0h1v-1h-1V0z M0,0v-1h-1v1H0z"/>
</g>
<g>
	<path d="M6.783,11.201h3.502V13H4.84V4.125h1.943V11.201z"/>
	<path d="M11.152,13v-1.439l2.927-2.435c0.947-0.779,1.343-1.331,1.343-2.063c0-0.9-0.444-1.379-1.235-1.379
		c-0.828,0-1.308,0.563-1.308,1.559h-1.931c0-1.991,1.271-3.286,3.226-3.286c2.027,0,3.238,1.091,3.238,2.986
		c0,1.211-0.731,2.195-1.835,3.118l-1.331,1.116h3.238v1.799L11.152,13z"/>
</g>
</svg>
