<?xml version="1.0" encoding="utf-8"?>
<!-- Generator: Adobe Illustrator 16.0.0, SVG Export Plug-In . SVG Version: 6.00 Build 0)  -->
<!DOCTYPE svg PUBLIC "-//W3C//DTD SVG 1.1//EN" "http://www.w3.org/Graphics/SVG/1.1/DTD/svg11.dtd">
<svg version="1.1" id="Layer_1" xmlns="http://www.w3.org/2000/svg" xmlns:xlink="http://www.w3.org/1999/xlink" x="0px" y="0px"
	 width="40px" height="40px" viewBox="0 0 40 40" enable-background="new 0 0 40 40" xml:space="preserve">
<circle cx="9" cy="20" r="4"/>
<circle fill="#EBEBEB" cx="9" cy="31" r="4"/>
<circle fill="#EBEBEB" cx="20" cy="20" r="4"/>
<circle fill="#EBEBEB" cx="20" cy="31" r="4"/>
<circle fill="#EBEBEB" cx="30" cy="20" r="4"/>
<circle fill="#EBEBEB" cx="30" cy="31" r="4"/>
<g>
	<defs>
		<rect id="SVGID_1_" width="40" height="40"/>
	</defs>
	<clipPath id="SVGID_2_">
		<use xlink:href="#SVGID_1_"  overflow="visible"/>
	</clipPath>
	<path clip-path="url(#SVGID_2_)" fill="#ECECEC" d="M1,40V0h-2v40H1z M40,39H0v2h40V39z M39,0v40h2V0H39z M0,1h40v-2H0V1z M0,40h-1
		v1h1V40z M40,40v1h1v-1H40z M40,0h1v-1h-1V0z M0,0v-1h-1v1H0z"/>
</g>
<g>
	<path d="M4.156,4.125h6.98v1.799H8.618V13H6.675V5.924H4.156V4.125z"/>
	<path d="M11.788,5.864V4.125h3.874V13h-1.859V5.864H11.788z"/>
</g>
</svg>
